<?xml version="1.0" encoding="UTF-8"?>
<svg version="1.1" xmlns="http://www.w3.org/2000/svg" width="797" height="309">
<path d="M0 0 C16.17833759 13.04172112 27.78161956 30.64364944 30.81640625 51.51171875 C32.64923791 73.53479122 28.48695976 94.24170748 14.4296875 111.73046875 C-1.2451563 129.86259004 -19.87010732 139.91343913 -43.84765625 141.68359375 C-59.93798818 142.22499119 -77.04093342 137.98402395 -89.8125 128.03125 C-96.63169236 123.24505215 -102.79299849 124.04347566 -110.60986328 125.14697266 C-113.07871426 125.48827175 -115.54812827 125.75696935 -118.02734375 126.01171875 C-122.33614855 126.4572266 -126.63683979 126.95065877 -130.9375 127.46875 C-130.29903381 123.48952546 -129.05203171 120.1724399 -127.3984375 116.50390625 C-126.90085937 115.37404297 -126.40328125 114.24417969 -125.890625 113.08007812 C-124.83869612 110.71454005 -123.77879049 108.35253303 -122.7109375 105.99414062 C-122.2159375 104.86298828 -121.7209375 103.73183594 -121.2109375 102.56640625 C-120.75122559 101.54039307 -120.29151367 100.51437988 -119.81787109 99.45727539 C-118.24109481 94.10471897 -120.13993851 89.6824351 -121.9375 84.59375 C-127.92412006 65.48010486 -124.97907577 45.15504063 -116.6875 27.21875 C-106.72614973 8.69686434 -90.95545737 -5.31139033 -70.97314453 -11.92919922 C-46.31666169 -19.22146196 -20.74139186 -15.25102343 0 0 Z M-76.9375 24.46875 C-76.9375 49.87875 -76.9375 75.28875 -76.9375 101.46875 C-67.594375 101.5615625 -67.594375 101.5615625 -58.0625 101.65625 C-56.11746582 101.68356201 -54.17243164 101.71087402 -52.16845703 101.73901367 C-38.53275554 101.85162994 -27.87717688 100.46322725 -17.3125 91.15625 C-8.55210064 81.24316651 -4.70283741 72.96967122 -4.9375 59.46875 C-6.34386056 48.44998329 -11.05965397 39.04774783 -19.71875 32.00390625 C-25.94473513 27.69613837 -32.48458471 24.33154964 -40.15527344 24.35522461 C-40.98720215 24.35534546 -41.81913086 24.35546631 -42.67626953 24.35559082 C-43.54106934 24.36070679 -44.40586914 24.36582275 -45.296875 24.37109375 C-46.09883301 24.37210083 -46.90079102 24.37310791 -47.72705078 24.37414551 C-50.7138818 24.37936527 -53.70069238 24.39332653 -56.6875 24.40625 C-63.37 24.426875 -70.0525 24.4475 -76.9375 24.46875 Z " fill="#083052" transform="translate(139.9375,69.53125)"/>
<path d="M0 0 C3.0625 2.25 3.0625 2.25 5 4 C5.33 2.02 5.66 0.04 6 -2 C10.47915328 -2.02886338 14.95828291 -2.04675187 19.4375 -2.0625 C20.71689453 -2.07087891 21.99628906 -2.07925781 23.31445312 -2.08789062 C25.13686523 -2.09272461 25.13686523 -2.09272461 26.99609375 -2.09765625 C28.12200928 -2.10289307 29.2479248 -2.10812988 30.40795898 -2.11352539 C33 -2 33 -2 34 -1 C34.10472724 1.02651936 34.13856394 3.05672493 34.14526367 5.0859375 C34.15164352 6.39240234 34.15802338 7.69886719 34.16459656 9.04492188 C34.16612749 10.48828088 34.16724024 11.93164037 34.16796875 13.375 C34.17118417 14.8574222 34.17454846 16.33984408 34.17805481 17.82226562 C34.18406202 20.9462965 34.18589369 24.07029969 34.18530273 27.19433594 C34.1852024 31.14872718 34.19871108 35.10293357 34.21607494 39.05728149 C34.2273542 42.13074511 34.22921695 45.20416676 34.22869301 48.27764893 C34.22985486 49.73171613 34.23417248 51.18578508 34.24202538 52.63983154 C34.28064947 60.54824606 33.99729653 68.3215064 33.0949707 76.18359375 C33.01529902 76.88411865 32.93562735 77.58464355 32.85354137 78.30639648 C31.60028643 88.26194529 27.75813406 97.20879789 19.9296875 103.72265625 C7.60553387 112.46121117 -7.57033862 113.64475615 -22.203125 111.5390625 C-33.13388737 108.82235255 -45.12504543 103.39886512 -51.375 93.625 C-53 90 -53 90 -54 82 C-43.77 82 -33.54 82 -23 82 C-22.34 83.32 -21.68 84.64 -21 86 C-14.80958456 89.39865946 -9.61522476 89.61301151 -2.6875 88.3125 C1.04302774 87.40624167 1.04302774 87.40624167 2.375 84.875 C2.58125 83.92625 2.7875 82.9775 3 82 C3.18046875 81.38640625 3.3609375 80.7728125 3.546875 80.140625 C4.83776366 75.63995914 5.19462414 71.6709794 5 67 C4.236875 67.7425 3.47375 68.485 2.6875 69.25 C-3.84716088 74.63419242 -11.88759535 76.68534123 -20.2421875 76.31640625 C-31.99852208 74.96759166 -40.93477702 70.29258973 -48.49609375 61.15234375 C-55.50853165 51.11636119 -55.97233124 39.84813431 -55 28 C-52.71482623 16.92670083 -46.10543308 7.56477853 -37 1 C-26.15621741 -5.48655359 -10.96052408 -7.14606856 0 0 Z M-21.75 23.1875 C-25.53205393 27.91506741 -27.31119203 31.93007228 -27.0625 38 C-26.33860322 43.27640317 -24.07951839 46.63702465 -20 50 C-15.12902842 53.09498834 -9.55836549 52.59607137 -4 52 C0.91084135 49.71996652 3.47820794 46.763385 6 42 C7.6804581 36.06238137 6.6401688 31.43324312 4 26 C0.79476787 21.92848892 -1.95783223 20.15549678 -7 19 C-12.54102636 18.4316896 -17.38682791 19.71679493 -21.75 23.1875 Z " fill="#083052" transform="translate(520,112)"/>
<path d="M0 0 C1.35808946 0.96611118 2.70001106 1.95702036 4 3 C4.33 1.35 4.66 -0.3 5 -2 C14.24 -2 23.48 -2 33 -2 C33 23.41 33 48.82 33 75 C24.09 75 15.18 75 6 75 C5.34 73.02 4.68 71.04 4 69 C2.8553125 70.1446875 2.8553125 70.1446875 1.6875 71.3125 C-4.58812628 76.49799402 -13.25094743 77.62959454 -21.1796875 77.3359375 C-32.78928824 75.95307647 -40.6052214 70.72921643 -47.84765625 61.6953125 C-55.06466215 51.44610019 -57.32978562 40.35729879 -55.57421875 28.00390625 C-53.11471598 16.40048521 -46.83660013 6.72114961 -37 0 C-25.58433529 -6.31619066 -11.4976127 -5.91701583 0 0 Z M-23.8125 26.0625 C-27.69682902 31.27859896 -27.60860372 35.61407114 -27 42 C-25.73784399 46.40548723 -23.25382318 49.17182919 -19.3125 51.4375 C-13.6701113 53.87518003 -8.51611746 53.87096373 -2.75 51.875 C1.4296989 49.0252053 4.36864324 45.89407029 6 41 C6.56384129 35.30737162 6.30719906 30.85055862 3 26 C-1.00566469 22.05842594 -4.09491841 19.85281967 -9.75 19.75 C-15.90610831 19.8385771 -19.76932715 21.36460881 -23.8125 26.0625 Z " fill="#083051" transform="translate(279,112)"/>
<path d="M0 0 C7.87880126 6.17698019 12.90161807 13.94901822 14.44140625 23.9140625 C15.19856544 36.65472193 14.20984703 47.98008256 5.44140625 57.9140625 C-5.78196367 68.12382759 -19.10159939 72.28214388 -34.05078125 72.12890625 C-48.56041151 71.24023179 -60.83124306 65.78174205 -70.55859375 54.9140625 C-76.77100304 45.64636995 -78.91122638 34.90304897 -77.05859375 23.9609375 C-75.62035947 17.45619612 -73.69680641 12.15807854 -69.55859375 6.9140625 C-69.10097656 6.32109375 -68.64335937 5.728125 -68.171875 5.1171875 C-51.4184843 -13.95720191 -19.62105451 -13.42342885 0 0 Z M-44.91015625 20.52734375 C-47.59822115 24.88819724 -49.13790441 29.02776249 -48.1171875 34.11328125 C-46.37179726 40.14734465 -43.85924871 43.98868044 -38.30859375 47.2265625 C-33.0954151 48.52985716 -28.40043809 48.551624 -23.30859375 46.7890625 C-19.50527287 44.19588917 -16.5660202 41.31638711 -14.74609375 36.9765625 C-14.18301753 30.7827241 -14.48389715 26.44851638 -17.55859375 20.9140625 C-21.39984105 16.84192055 -25.13189671 14.79035851 -30.74609375 14.6015625 C-36.32804658 14.69247378 -41.22592351 16.12969022 -44.91015625 20.52734375 Z " fill="#083051" transform="translate(444.55859375,117.0859375)"/>
<path d="M0 0 C4.80097393 -0.27439619 9.5972866 -0.47258193 14.40429688 -0.60424805 C16.03433789 -0.65917334 17.66384674 -0.73395431 19.29199219 -0.82983398 C33.53809225 -1.64701825 33.53809225 -1.64701825 38.29394531 2.39208984 C40.88066974 5.02102079 42.98451669 7.91137754 45 11 C45.66 11.99 46.32 12.98 47 14 C47.66 14 48.32 14 49 14 C50.53851766 12.28048026 52.00731759 10.49812503 53.4375 8.6875 C54.94819414 6.7835774 56.46809188 4.88689575 58 3 C58.37624512 2.45537109 58.75249023 1.91074219 59.14013672 1.34960938 C62.1270806 -0.81786579 65.40206565 -0.36619062 68.94921875 -0.29296875 C69.72183548 -0.28872391 70.49445221 -0.28447906 71.29048157 -0.28010559 C73.75650992 -0.26332183 76.22171896 -0.22567147 78.6875 -0.1875 C80.36001423 -0.17245271 82.03254128 -0.15876438 83.70507812 -0.14648438 C87.80370078 -0.11341946 91.90171151 -0.06164028 96 0 C94.11478925 4.07868115 91.38234622 7.02282182 88.3125 10.25 C87.21929407 11.41595641 86.12684222 12.58262032 85.03515625 13.75 C84.50937988 14.31074219 83.98360352 14.87148437 83.44189453 15.44921875 C81.12469083 17.94140938 78.89451892 20.50522258 76.66796875 23.078125 C73.48104538 26.75017722 70.23488012 30.37021243 67 34 C68.48006803 37.36448454 70.39133205 39.74003645 72.875 42.4375 C73.679375 43.31535156 74.48375 44.19320312 75.3125 45.09765625 C76.6428125 46.53431641 76.6428125 46.53431641 78 48 C78.95859256 49.04012574 79.91691886 50.08049691 80.875 51.12109375 C84.43681921 54.98595954 88.00408343 58.84579513 91.57617188 62.70117188 C93.09437474 64.34067934 94.60991807 65.98260875 96.125 67.625 C97.01445313 68.58664063 97.90390625 69.54828125 98.8203125 70.5390625 C101 73 101 73 103 76 C100.24285315 78.75714685 91.32073128 77.54814068 87.46533203 77.62475586 C85.83546682 77.66623688 84.20597172 77.72743349 82.57763672 77.80932617 C69.1163264 78.47511605 69.1163264 78.47511605 64.04516602 74.94042969 C61.75514037 72.41026133 59.86431554 69.8540438 58 67 C57.06686466 65.85905047 56.1203131 64.7287372 55.15234375 63.6171875 C54.42144531 62.71226562 53.69054687 61.80734375 52.9375 60.875 C52.18339844 59.94429687 51.42929687 59.01359375 50.65234375 58.0546875 C50.10707031 57.37664062 49.56179688 56.69859375 49 56 C45.11152009 57.52730362 43.23634816 59.87442633 40.6875 63.125 C39.56864027 64.54315973 38.44700822 65.95982125 37.28491211 67.34277344 C35.92159467 69.01842256 35.92159467 69.01842256 34.79516602 71.13378906 C33.05310925 73.80567344 31.71475746 75.2858268 29 77 C22.82627966 77.99990134 16.79181075 77.75501861 10.5625 77.5 C8.8601095 77.45983324 7.15762817 77.42333804 5.45507812 77.390625 C1.30112965 77.30284571 -2.84843231 77.16503442 -7 77 C-5.6094672 73.88840849 -3.97662583 71.69566991 -1.62109375 69.2421875 C-0.95150635 68.53908447 -0.28191895 67.83598145 0.40795898 67.11157227 C1.11895752 66.37350342 1.82995605 65.63543457 2.5625 64.875 C4.02422136 63.34059009 5.48516418 61.80543814 6.9453125 60.26953125 C7.64817383 59.5317041 8.35103516 58.79387695 9.07519531 58.03369141 C12.80084132 54.09728461 16.39852538 50.0499341 20 46 C21.68649632 44.12409717 23.37398939 42.24908995 25.0625 40.375 C25.81660156 39.53710938 26.57070313 38.69921875 27.34765625 37.8359375 C27.89292969 37.23007813 28.43820312 36.62421875 29 36 C27.4186938 32.26077871 25.06769602 29.70350263 22.3125 26.75 C21.40182884 25.76479862 20.49167439 24.77911938 19.58203125 23.79296875 C18.72996094 22.87128906 17.87789062 21.94960937 17 21 C12.75391731 16.2732287 8.64818125 11.42787499 4.5625 6.5625 C4.11261719 6.02955322 3.66273438 5.49660645 3.19921875 4.94750977 C0 1.11676822 0 1.11676822 0 0 Z " fill="#083151" transform="translate(609,110)"/>
<path d="M0 0 C8.91 0 17.82 0 27 0 C27 40.59 27 81.18 27 123 C18.09 123 9.18 123 0 123 C0 82.41 0 41.82 0 0 Z " fill="#083151" transform="translate(329,63)"/>
<path d="M0 0 C9.24 0 18.48 0 28 0 C28 25.08 28 50.16 28 76 C18.76 76 9.52 76 0 76 C0 50.92 0 25.84 0 0 Z " fill="#083052" transform="translate(184,110)"/>
<path d="M0 0 C8.91 0 17.82 0 27 0 C28.66165207 1.66165207 28.11959725 3.6651603 28.12442017 5.88401794 C28.12082489 6.58172806 28.11722961 7.27943817 28.11352539 7.99829102 C28.11367142 8.72995483 28.11381744 9.46161865 28.1139679 10.2154541 C28.11326867 12.64496784 28.10547585 15.07440583 28.09765625 17.50390625 C28.0957921 19.18399514 28.09436819 20.86408457 28.09336853 22.54417419 C28.08954307 26.97473643 28.07971256 31.4052661 28.06866455 35.83581543 C28.05845103 40.35342976 28.05387104 44.87104934 28.04882812 49.38867188 C28.03809031 58.25913123 28.02049329 67.12955781 28 76 C18.76 76 9.52 76 0 76 C0 50.92 0 25.84 0 0 Z " fill="#083152" transform="translate(569,110)"/>
<path d="M0 0 C18.85026738 0 18.85026738 0 24.515625 5.4609375 C29.55390277 11.16519451 30.47317754 15.50252972 30.30078125 22.9609375 C29.74950246 28.53100116 28.18929091 32.19403259 23.8359375 35.78515625 C15.1870426 41.74359688 12.11468775 41 0 41 C0 27.47 0 13.94 0 0 Z " fill="#083051" transform="translate(83,112)"/>
<path d="M0 0 C3.93792318 2.56821077 6.74612583 5.61725165 8.875 9.875 C9.46606487 15.55831608 9.14743416 20.02277003 5.875 24.875 C1.17218581 29.22510312 -2.59939596 30.23734551 -8.84375 30.15625 C-13.60021811 29.56983612 -16.34875322 26.73516535 -19.4375 23.3125 C-22.30291216 19.17357133 -22.53738314 15.82359763 -22.125 10.875 C-20.2607158 6.02178189 -17.46750625 2.77000417 -13.125 -0.125 C-8.46247142 -1.67917619 -4.63746673 -1.66948802 0 0 Z " fill="#083051" transform="translate(589.125,67.125)"/>
<path d="M0 0 C3.99113576 3.61986732 6.36600567 7.26614914 6.91796875 12.7109375 C6.67337325 18.01956576 4.91235871 21.15956881 1.35546875 25.02734375 C-2.62386497 28.39160481 -5.99385127 28.8207691 -11.06640625 28.6875 C-15.72267061 28.16923753 -18.49920298 26.31674003 -21.625 22.9375 C-24.73146991 18.33532236 -24.97754902 13.83178648 -24.3125 8.4375 C-19.01770087 -1.95599458 -10.34734338 -4.88082235 0 0 Z " fill="#083051" transform="translate(207.3125,68.5625)"/>
</svg>
